# Blender v2.76 (sub 0) OBJ File: 'Table.blend'
# www.blender.org
mtllib glass_table.mtl
o Cube.003
v 0.550262 0.188351 -1.187363
v 0.550262 0.188351 1.187363
v -0.550261 0.188351 -1.187363
v -0.550262 0.188351 1.187362
v 0.167238 0.188351 -0.524815
v 0.167238 0.188351 0.524814
v -0.167237 0.188351 -0.524815
v -0.167238 0.188351 0.524814
v 0.167238 0.188351 -0.000000
v 0.000000 0.188351 -0.524815
v -0.000000 0.188351 0.524814
v -0.167237 0.188351 -0.000000
vn 0.000000 -1.000000 0.000000
usemtl Bottom
s off
f 6//1 9//1 5//1 1//1 2//1
f 5//1 10//1 7//1 3//1 1//1
f 8//1 11//1 6//1 2//1 4//1
f 7//1 12//1 8//1 4//1 3//1
o Cube.002
v 0.000000 0.172359 -0.000000
v -0.000000 1.314440 0.500000
v 0.011803 0.172359 -0.000000
v -0.006695 1.314440 0.500000
v -0.006695 0.158724 -0.005970
v 0.006695 0.172743 -0.006307
v 0.000000 1.314440 -0.500000
v -0.000000 1.314440 1.024814
v -0.154435 1.314440 -0.915124
v -0.117978 1.314440 -0.972771
v -0.000945 1.314440 -1.024815
v 0.167237 1.314440 -0.847126
v -0.011803 1.314440 -0.500000
v -0.167237 1.314440 -0.664221
v 0.011803 1.314440 -0.500000
v 0.155406 1.314440 -0.601376
v 0.121712 1.314440 -0.548099
v 0.006695 1.314440 0.500000
v -0.153998 1.314440 0.613440
v -0.116294 1.314440 0.553823
v 0.167237 1.314440 0.683764
v 0.116294 1.314440 0.553823
v -0.167238 1.314440 0.851113
v -0.119084 1.314440 0.973938
v 0.167238 0.172359 -0.524815
v 0.167238 0.172359 0.524814
v 0.167238 0.172359 -0.000000
v -0.000000 0.172359 0.524814
v -0.167237 0.172359 -0.000000
v 0.000000 0.172359 -0.524815
v 0.000000 1.314440 -1.024815
v 0.167238 0.172359 -0.347126
v -0.000945 0.172359 -0.524815
v 0.154435 0.165880 -0.412288
v 0.117978 0.163605 -0.468938
v 0.063416 0.165880 -0.508453
v 0.000945 0.172359 -0.524815
v -0.167237 0.172359 -0.347126
v -0.167237 0.172359 -0.524815
v -0.063416 0.165880 -0.508453
v -0.117978 0.163605 -0.468938
v -0.154435 0.165880 -0.412288
v -0.167237 1.314440 -0.847126
v 0.000945 1.314440 -1.024815
v -0.063416 1.314440 -1.011289
v 0.063416 1.314440 -1.011289
v 0.117978 1.314440 -0.972771
v 0.154435 1.314440 -0.915124
v 0.167238 0.172359 -0.164221
v 0.167238 0.168133 0.155434
v 0.071285 0.178347 -0.015122
v 0.121712 0.167772 -0.051641
v 0.155406 0.165670 -0.103998
v -0.167237 0.172359 -0.164221
v -0.011803 0.172359 -0.000000
v -0.167238 0.172359 0.164221
v -0.155406 0.165670 -0.103998
v -0.121712 0.169885 -0.051641
v -0.071285 0.178347 -0.015122
v -0.071285 1.314440 -0.512501
v -0.121712 1.314440 -0.548099
v -0.155406 1.314440 -0.601376
v 0.167238 1.314440 -0.664221
v 0.071285 1.314440 -0.512501
v -0.167238 1.314440 0.683764
v -0.059866 1.314440 0.513988
v 0.059866 1.314440 0.513988
v 0.153998 1.314440 0.613440
v 0.167238 0.151477 0.174622
v 0.153998 0.170313 0.122720
v 0.116294 0.169563 0.070174
v 0.059866 0.170009 0.024984
v -0.167238 0.157953 0.177457
v -0.059866 0.169899 0.025861
v -0.116294 0.161240 0.072080
v -0.153998 0.165674 0.125314
v 0.002830 0.172359 0.524814
v 0.167238 0.172359 0.351113
v 0.065746 0.166026 0.508819
v 0.119084 0.163801 0.470192
v 0.154723 0.166026 0.414813
v -0.167238 0.172359 0.351113
v -0.002830 0.172359 0.524814
v -0.167238 0.172359 0.524814
v -0.154723 0.166026 0.414813
v -0.119084 0.163801 0.470192
v -0.065746 0.166026 0.508819
v -0.002830 1.314440 1.024814
v -0.065746 1.314440 1.011592
v -0.154723 1.314440 0.917585
v 0.167237 1.314440 0.851113
v 0.002830 1.314440 1.024814
v 0.154723 1.314440 0.917585
v 0.119084 1.314440 0.973938
v 0.065746 1.314440 1.011592
vt 0.161258 0.533994
vt 0.210667 0.531003
vt 0.181265 0.529430
vt 0.200767 0.526883
vt 0.218684 0.526739
vt 0.233315 0.529021
vt 0.178012 1.108811
vt 0.167583 1.110107
vt 0.104361 0.532233
vt 0.122173 0.531080
vt 0.148298 1.111608
vt 0.141024 1.111614
vt 0.141699 0.531686
vt 0.157584 1.111067
vt 0.318569 0.523179
vt 0.349153 0.525300
vt 0.209519 1.102609
vt 0.213736 1.102604
vt 0.381409 0.530017
vt 0.197590 1.103109
vt 0.589673 0.521234
vt 0.611405 0.519297
vt 0.603664 0.517583
vt 0.621011 0.516488
vt 0.639989 0.518117
vt 0.659474 0.522222
vt 0.654057 1.087183
vt 0.644384 1.086211
vt 0.661186 0.522322
vt 0.680788 0.520456
vt 0.664472 1.088550
vt 0.654912 1.087283
vt 0.699767 0.520724
vt 0.673061 1.089919
vt 0.716983 0.523087
vt 0.679725 1.091181
vt 0.730676 0.527184
vt 0.683360 1.092145
vt 0.648076 1.093086
vt 0.646069 1.092967
vt 1.323548 0.521261
vt 0.890505 0.528335
vt 0.499987 0.528125
vt 0.425261 0.527915
vt 1.041882 0.528506
vt 0.650087 1.093205
vt 0.161546 0.533977
vt 0.034803 0.532931
vt 0.090005 0.534971
vt 0.136959 1.111084
vt 0.130230 1.109044
vt 0.790181 0.527255
vt 0.781448 0.518720
vt 0.688545 1.094011
vt 0.843251 0.527737
vt 0.822039 0.528014
vt 0.801999 0.528473
vt 0.909599 0.531099
vt 1.034803 0.532931
vt 1.004794 0.528707
vt 0.974295 0.528574
vt 0.942062 0.532553
vt 0.534112 0.523319
vt 0.411992 0.525150
vt 0.167734 1.110090
vt 0.167884 1.110073
vt 0.161833 0.533961
vt 0.288848 0.526981
vt 1.112288 0.536952
vt 1.090005 0.534971
vt 0.112288 0.536952
vt 0.211533 1.103094
vt 0.200781 1.105134
vt 0.709343 0.525247
vt 0.660330 0.522272
vt 1.171298 1.104448
vt 1.175241 1.104238
vt 1.179167 1.104028
vt 0.187694 1.107411
vt 0.195667 1.106120
vt 0.623589 1.086195
vt 0.615224 1.088062
vt 0.540337 0.515974
vt 0.519400 0.520648
vt 0.499192 0.519698
vt 0.476561 0.525543
vt 0.041882 0.528506
vt 0.179167 1.104028
vt 1.151575 1.105645
vt 1.136995 1.106939
vt 1.130110 1.108132
vt 0.004794 0.528707
vt 0.130110 1.108132
vt 0.665994 1.093995
vt 0.681002 1.094554
vt 0.688325 1.094560
vt 0.613507 1.089081
vt 0.618409 1.090417
vt 0.631118 1.091865
vt 0.628148 1.085677
vt 0.635437 1.085682
vt 0.654484 1.087233
vt 0.175241 1.104238
vt 0.171298 1.104448
vt 0.151575 1.105645
vt 0.136995 1.106939
vn -0.867400 0.483400 -0.118100
vn 0.104800 0.988700 0.107000
vn -0.419900 0.731100 -0.537700
vn -0.530100 0.709200 -0.464700
vn -0.464100 0.834800 -0.296100
vn -0.714300 -0.697700 -0.053300
vn -0.327200 0.514300 -0.792700
vn -0.721100 0.643400 0.256900
vn 0.464100 0.834800 -0.296100
vn 0.530100 0.709200 -0.464700
vn 0.585600 0.548700 -0.596600
vn 0.730600 0.600000 -0.325800
vn 0.419900 0.731100 -0.537700
vn 0.327200 0.514300 -0.792700
vn -0.548900 0.771700 0.321100
vn -0.385100 0.795000 0.468700
vn -0.492400 0.761600 0.421200
vn -0.658600 0.717300 0.227300
vn -0.181200 0.789800 0.586000
vn -0.264700 0.793700 0.547700
vn -0.693800 0.718300 0.051700
vn 0.104800 0.988700 -0.107000
vn -0.464100 0.834800 0.296100
vn -0.530100 0.709200 0.464700
vn -0.419900 0.731100 0.537700
vn -0.290200 -0.937800 -0.190600
vn -0.085800 0.524200 0.847300
vn -0.327200 0.514300 0.792700
vn 0.376800 -0.896500 -0.233000
vn 0.419900 0.731100 0.537700
vn 0.327200 0.514300 0.792700
vn 0.085800 0.524200 0.847300
vn 0.530100 0.709200 0.464700
vn 0.585600 0.548700 0.596600
vn 0.940900 0.082900 0.328200
vn 0.730600 0.600000 0.325800
vn 0.996900 -0.031300 0.071600
vn 0.739100 0.668000 0.087000
vn 0.194800 0.550200 0.812000
vn 0.959600 0.271700 -0.073200
vn 0.598300 0.720500 -0.350400
vn 0.055600 0.695600 0.716200
vn 0.117600 0.003500 0.993000
vn 0.015000 0.751500 0.659500
vn -0.733900 0.549500 0.399300
vn -0.629900 0.764400 -0.137500
vn 0.000000 0.401000 0.916000
vn 0.666200 0.740700 0.086300
vn 0.693800 0.718300 -0.051700
vn 0.739100 0.668000 -0.087000
vn 0.714100 0.698100 0.051300
vn 0.235100 0.970700 0.049300
vn 0.975000 0.196500 -0.103700
vn 0.713600 0.698500 -0.052800
vn 0.225100 0.823700 -0.520400
vn 0.407000 0.814100 -0.414200
vn 0.642100 0.717400 -0.270100
vn -0.058700 0.997000 0.050600
vn 0.569200 0.761300 0.310300
vn 0.405500 0.793700 0.453300
vn 0.210100 0.787000 0.580000
vn -0.107800 0.993800 0.027100
vn 0.102800 0.992600 0.064100
vn 0.000000 0.837000 0.547200
vn 0.721100 0.643400 0.256900
vn 0.867400 0.483400 -0.118100
vn -0.752300 -0.651400 0.098500
vn -0.104800 0.988700 0.107000
vn -0.714100 0.698100 0.051300
vn -0.739100 0.668000 -0.087000
vn -0.074000 0.990500 -0.115500
vn 0.000000 -0.401000 0.916000
vn 0.060800 0.819900 0.569200
vn -0.060800 0.819900 0.569200
vn -0.585600 0.548700 -0.596600
vn -0.730600 0.600000 -0.325800
vn -0.739100 0.668000 0.087000
vn -0.713000 0.699000 -0.054700
vn -0.950700 0.290000 -0.109300
vn -0.598000 0.754600 -0.270100
vn -0.385700 0.831300 -0.400300
vn -0.227300 0.836400 -0.498800
vn 0.266500 0.793600 0.547000
vn 0.492600 0.761300 0.421500
vn 0.657900 0.717600 0.228200
vn 0.288900 0.788000 -0.543600
vn 0.484300 0.761200 -0.431300
vn 0.652200 0.720000 -0.237100
vn -0.650300 0.720400 -0.241000
vn -0.489300 0.759100 -0.429200
vn -0.310000 0.785300 -0.535800
vn -0.730600 0.600000 0.325800
vn -0.585600 0.548700 0.596600
vn 0.000000 0.547200 0.837000
usemtl Chrome
s 1
f 49/1/2 51/2/3 52/3/4
f 52/3/4 51/2/3 53/4/5
f 53/4/5 51/2/3 54/5/6
f 54/5/6 51/2/3 50/6/7
f 49/1/2 52/3/4 57/7/8 56/8/9
f 46/9/10 47/10/11 59/11/12 60/12/13
f 47/10/11 48/13/14 58/14/15 59/11/12
f 69/15/16 70/16/17 73/17/18 74/18/19
f 70/16/17 71/19/20 72/20/21 73/17/18
f 94/21/22 96/22/23 97/23/24
f 97/23/24 96/22/23 98/24/25
f 98/24/25 96/22/23 99/25/26
f 99/25/26 96/22/23 95/26/27
f 99/25/26 95/26/27 100/27/28 101/28/29
f 89/29/30 91/30/31 107/31/32 104/32/33
f 91/30/31 92/33/34 106/34/35 107/31/32
f 92/33/34 93/35/36 105/36/37 106/34/35
f 93/35/36 90/37/38 103/38/39 105/36/37
f 14/39/40 16/40/41 17/41/42 15/42/43 13/43/44 67/44/45 18/45/46 30/46/47
f 51/2/3 49/1/2 42/47/48
f 61/48/49 44/49/50 24/50/51 75/51/52
f 90/37/38 62/52/53 81/53/54 33/54/55 103/38/39
f 15/42/43 17/41/42 84/55/56 83/56/57 82/57/58 81/53/54 62/52/53 39/58/59 61/59/49 65/60/60 64/61/61 63/62/62
f 96/22/23 94/21/22 68/63/63 41/64/64
f 43/65/65 23/66/66 45/67/67 42/47/48 49/1/2 56/8/9
f 41/64/64 66/68/68 50/6/7 51/2/3
f 37/69/69 44/70/50 61/59/49 39/58/59
f 42/47/48 45/67/67 37/71/69
f 50/6/7 66/68/68 26/72/70 55/73/71
f 38/74/72 89/29/30 40/75/73
f 67/44/45 13/43/44 15/42/43 27/76/74 19/77/65 25/78/75
f 44/49/50 37/71/69 46/9/10
f 46/9/10 37/71/69 47/10/11
f 47/10/11 37/71/69 48/13/14
f 48/13/14 37/71/69 45/67/67
f 52/3/4 53/4/5 22/79/76 57/7/8
f 53/4/5 54/5/6 21/80/77 22/79/76
f 54/5/6 50/6/7 55/73/71 21/80/77
f 44/49/50 46/9/10 60/12/13 24/50/51
f 48/13/14 45/67/67 23/66/66 58/14/15
f 68/63/63 94/21/22 35/81/78 77/82/79 85/83/80
f 66/68/68 41/64/64 68/63/63 85/83/80 88/84/81 87/85/82 86/86/83 18/87/46 67/44/45 71/19/20 70/16/17 69/15/16
f 66/68/68 69/15/16 74/18/19 26/72/70
f 71/19/20 67/44/45 25/88/75 72/20/21
f 15/42/43 63/62/62 76/89/84 27/76/74
f 63/62/62 64/61/61 29/90/85 76/89/84
f 64/61/61 65/60/60 28/91/86 29/90/85
f 65/92/60 61/48/49 75/51/52 28/93/86
f 40/75/73 95/26/27 96/22/23
f 16/40/41 79/94/87 84/55/56 17/41/42
f 79/94/87 34/95/88 83/56/57 84/55/56
f 34/95/88 80/96/89 82/57/58 83/56/57
f 80/96/89 33/54/55 81/53/54 82/57/58
f 77/82/79 31/97/90 88/84/81 85/83/80
f 31/97/90 32/98/91 87/85/82 88/84/81
f 32/98/91 78/99/92 86/86/83 87/85/82
f 78/99/92 30/46/47 18/45/46 86/86/83
f 89/29/30 38/74/72 91/30/31
f 91/30/31 38/74/72 92/33/34
f 92/33/34 38/74/72 93/35/36
f 94/21/22 97/23/24 102/100/93 35/81/78
f 97/23/24 98/24/25 36/101/94 102/100/93
f 98/24/25 99/25/26 101/28/29 36/101/94
f 95/26/27 40/75/73 89/29/30 104/32/33 20/102/95 100/27/28
usemtl Bottom
f 19/103/65 27/104/74 76/105/84 29/106/85 28/93/86 75/51/52 24/50/51 60/12/13 59/11/12 58/14/15 23/66/66 43/65/65 56/8/9 57/7/8 22/79/76 21/80/77 55/73/71 26/72/70 74/18/19 73/17/18 72/20/21 25/88/75
f 20/102/95 104/32/33 107/31/32 106/34/35 105/36/37 103/38/39 33/54/55 80/96/89 34/95/88 79/94/87 16/40/41 14/39/40 30/46/47 78/99/92 32/98/91 31/97/90 77/82/79 35/81/78 102/100/93 36/101/94 101/28/29 100/27/28
o Cube.001
v 1.671907 1.352378 2.420075
v 1.571907 1.352378 2.520075
v 1.668499 1.352378 2.445957
v 1.658509 1.352378 2.470075
v 1.642617 1.352378 2.490786
v 1.621906 1.352378 2.506678
v 1.597788 1.352378 2.516668
v 1.571907 1.439992 2.520075
v 1.671907 1.439992 2.420075
v 1.597788 1.439992 2.516668
v 1.621907 1.439992 2.506678
v 1.642617 1.439992 2.490786
v 1.658509 1.439992 2.470075
v 1.668499 1.439992 2.445957
v 1.571907 1.352378 -2.520075
v 1.671907 1.352378 -2.420075
v 1.597788 1.352378 -2.516668
v 1.621907 1.352378 -2.506678
v 1.642617 1.352378 -2.490786
v 1.658509 1.352378 -2.470075
v 1.668499 1.352378 -2.445957
v 1.671907 1.439992 -2.420075
v 1.571907 1.439992 -2.520075
v 1.668499 1.439992 -2.445957
v 1.658509 1.439992 -2.470075
v 1.642617 1.439992 -2.490786
v 1.621906 1.439992 -2.506678
v 1.597788 1.439992 -2.516668
v -1.671907 1.352378 -2.420075
v -1.571907 1.352378 -2.520075
v -1.668499 1.352378 -2.445957
v -1.658509 1.352378 -2.470075
v -1.642617 1.352378 -2.490786
v -1.621906 1.352378 -2.506678
v -1.597788 1.352378 -2.516668
v -1.571907 1.439992 -2.520075
v -1.671907 1.439992 -2.420075
v -1.597788 1.439992 -2.516668
v -1.621907 1.439992 -2.506678
v -1.642617 1.439992 -2.490786
v -1.658509 1.439992 -2.470075
v -1.668499 1.439992 -2.445957
v -1.571907 1.352378 2.520075
v -1.671907 1.352378 2.420075
v -1.597788 1.352378 2.516668
v -1.621907 1.352378 2.506678
v -1.642617 1.352378 2.490786
v -1.658509 1.352378 2.470075
v -1.668499 1.352378 2.445957
v -1.671907 1.439992 2.420075
v -1.571907 1.439992 2.520075
v -1.668499 1.439992 2.445957
v -1.658509 1.439992 2.470075
v -1.642617 1.439992 2.490786
v -1.621906 1.439992 2.506678
v -1.597788 1.439992 2.516668
vt 0.485047 0.000000
vt 0.488917 0.000676
vt 0.492523 0.002658
vt 0.495620 0.005811
vt 0.497996 0.009920
vt 0.499490 0.014705
vt 0.500000 0.019841
vt 0.500000 0.980159
vt 0.499490 0.985294
vt 0.497997 0.990080
vt 0.495620 0.994189
vt 0.492524 0.997342
vt 0.488917 0.999324
vt 0.485047 1.000000
vt 0.014953 1.000000
vt 0.011083 0.999324
vt 0.007477 0.997342
vt 0.004380 0.994189
vt 0.002004 0.990080
vt 0.000510 0.985295
vt 0.000000 0.980159
vt 0.000000 0.019841
vt 0.000510 0.014706
vt 0.002003 0.009920
vt 0.004380 0.005811
vt 0.007477 0.002658
vt 0.011083 0.000676
vt 0.014953 0.000000
vt 0.000000 0.000000
vt 1.000000 0.000000
vt 1.000000 1.000000
vt 0.000000 1.000000
vt 0.514953 1.000000
vt 0.511083 0.999324
vt 0.507477 0.997342
vt 0.504380 0.994189
vt 0.502004 0.990080
vt 0.500510 0.985295
vt 0.500510 0.014706
vt 0.502003 0.009920
vt 0.504380 0.005811
vt 0.507477 0.002658
vt 0.511083 0.000676
vt 0.514953 0.000000
vt 0.985047 0.000000
vt 0.988917 0.000676
vt 0.992523 0.002658
vt 0.995620 0.005811
vt 0.997997 0.009920
vt 0.999490 0.014705
vt 1.000000 0.019841
vt 1.000000 0.980159
vt 0.999490 0.985294
vt 0.997997 0.990080
vt 0.995620 0.994189
vt 0.992523 0.997342
vt 0.988917 0.999324
vt 0.985047 1.000000
vn 0.000000 1.000000 0.000000
vn 0.000000 0.000000 1.000000
vn 0.130500 0.000000 0.991400
vn 0.382700 -0.000000 0.923900
vn 0.608800 0.000000 0.793400
vn 0.793400 0.000000 0.608800
vn 0.923900 0.000000 0.382700
vn 0.991400 0.000000 0.130500
vn 0.000000 -1.000000 -0.000000
vn 0.991400 0.000000 -0.130500
vn 0.923900 0.000000 -0.382700
vn 0.793400 0.000000 -0.608800
vn 0.608800 0.000000 -0.793400
vn 0.382700 0.000000 -0.923900
vn 0.130500 0.000000 -0.991400
vn 1.000000 0.000000 0.000000
vn -0.130500 0.000000 -0.991400
vn -0.382700 -0.000000 -0.923900
vn -0.608800 0.000000 -0.793400
vn -0.793400 0.000000 -0.608800
vn -0.923900 0.000000 -0.382700
vn -0.991400 0.000000 -0.130500
vn 0.000000 0.000000 -1.000000
vn -0.130500 0.000000 0.991400
vn -0.382700 0.000000 0.923900
vn -0.608800 0.000000 0.793400
vn -0.793400 0.000000 0.608800
vn -0.923900 0.000000 0.382700
vn -0.991400 0.000000 0.130500
vn -1.000000 0.000000 0.000000
usemtl Table_Top
s off
f 115/107/96 117/108/96 118/109/96 119/110/96 120/111/96 121/112/96 116/113/96 129/114/96 131/115/96 132/116/96 133/117/96 134/118/96 135/119/96 130/120/96 143/121/96 145/122/96 146/123/96 147/124/96 148/125/96 149/126/96 144/127/96 157/128/96 159/129/96 160/130/96 161/131/96 162/132/96 163/133/96 158/134/96
f 115/135/97 158/136/97 150/137/97 109/138/97
f 115/135/98 109/136/98 114/137/98 117/138/98
f 117/135/99 114/136/99 113/137/99 118/138/99
f 118/135/100 113/136/100 112/137/100 119/138/100
f 119/135/101 112/136/101 111/137/101 120/138/101
f 120/135/102 111/136/102 110/137/102 121/138/102
f 121/135/103 110/136/103 108/137/103 116/138/103
f 150/139/104 152/140/104 153/141/104 154/142/104 155/143/104 156/144/104 151/114/104 136/113/104 138/145/104 139/146/104 140/147/104 141/148/104 142/149/104 137/150/104 122/151/104 124/152/104 125/153/104 126/154/104 127/155/104 128/156/104 123/157/104 108/158/104 110/159/104 111/160/104 112/161/104 113/162/104 114/163/104 109/164/104
f 129/135/105 123/136/105 128/137/105 131/138/105
f 131/135/106 128/136/106 127/137/106 132/138/106
f 132/135/107 127/136/107 126/137/107 133/138/107
f 133/135/108 126/136/108 125/137/108 134/138/108
f 134/135/109 125/136/109 124/137/109 135/138/109
f 135/135/110 124/136/110 122/137/110 130/138/110
f 129/135/111 116/136/111 108/137/111 123/138/111
f 143/135/112 137/136/112 142/137/112 145/138/112
f 145/135/113 142/136/113 141/137/113 146/138/113
f 146/135/114 141/136/114 140/137/114 147/138/114
f 147/135/115 140/136/115 139/137/115 148/138/115
f 148/135/116 139/136/116 138/137/116 149/138/116
f 149/135/117 138/136/117 136/137/117 144/138/117
f 143/135/118 130/136/118 122/137/118 137/138/118
f 150/135/119 158/136/119 163/137/119 152/138/119
f 152/135/120 163/136/120 162/137/120 153/138/120
f 153/135/121 162/136/121 161/137/121 154/138/121
f 154/135/122 161/136/122 160/137/122 155/138/122
f 155/135/123 160/136/123 159/137/123 156/138/123
f 156/135/124 159/136/124 157/137/124 151/138/124
f 157/135/125 144/136/125 136/137/125 151/138/125
o Cube
v 1.282712 0.043769 -1.919811
v 1.282710 0.043769 1.919813
v -1.282711 0.043769 1.919811
v -1.282711 0.043769 -1.919812
v 0.550262 0.188351 1.187363
v -0.550261 0.188351 -1.187363
v -0.550262 0.188351 1.187362
v 0.167238 0.188351 -0.000000
v 0.167238 0.182925 0.155434
v 0.167238 0.188351 0.351113
v 0.167238 0.188351 0.524814
v 0.154723 0.180218 0.414813
v 1.282711 0.138351 1.919813
v -1.232711 0.188351 1.869812
v -1.282711 0.138351 1.919812
v 1.232711 0.188351 1.869812
v -1.282711 0.138351 -1.919813
v -1.232710 0.188351 -1.869813
v 1.282711 0.138351 -1.919812
v 0.550262 0.188351 -1.187363
v 1.232711 0.188351 -1.869812
vt 0.373824 1.304001
vt 0.373823 -1.118740
vt -1.118740 -1.118740
vt -1.118740 1.304001
vt 0.376981 1.341861
vt 0.384262 1.382055
vt 0.384262 1.272452
vt 2.034623 0.500000
vt 2.034623 2.118740
vt 2.089651 2.118741
vt 2.089650 0.500000
vt 0.799963 -0.688126
vt 0.402914 -1.118740
vt 0.402914 1.240903
vt 0.799963 0.810288
vt 1.837298 1.240903
vt 1.440248 0.810288
vt 1.837297 -1.118740
vt 1.440248 -0.688126
vt 2.005533 1.304001
vt 2.005533 -1.118740
vt 1.950505 -1.118740
vt 1.950505 1.304001
vt 0.376981 1.603602
vt 0.376981 1.272452
vt 0.376981 1.382055
vt 0.373824 1.505525
vt 2.034623 1.272452
vt 2.034623 -1.087191
vt 0.373824 1.272452
vt 1.866388 1.272452
vt 1.895478 1.304001
vt 1.895478 -1.118740
vt 1.866388 -1.087191
vt 2.063713 -1.118740
vt 2.034623 0.468451
vt 2.063713 0.500000
vt 2.118741 0.500000
vt 2.118740 -1.118740
vn 0.000000 -1.000000 -0.000000
vn 0.544900 -0.838500 0.000000
vn -0.000000 0.000000 1.000000
vn 0.000000 1.000000 0.000000
vn -1.000000 0.000000 -0.000000
vn 1.000000 -0.000000 0.000000
vn -0.707100 0.707100 -0.000000
vn -0.000000 0.707100 0.707100
vn 0.707100 0.707100 0.000000
vn 0.000000 0.707100 -0.707100
vn 0.000000 -0.000000 -1.000000
usemtl Bottom
s off
f 164/165/126 165/166/126 166/167/126 167/168/126
f 175/169/127 173/170/127 174/171/127
f 176/172/128 178/173/128 166/174/128 165/175/128
f 169/176/129 181/177/129 177/178/129 170/179/129
f 170/179/129 177/178/129 179/180/129 168/181/129
f 168/181/129 179/180/129 184/182/129 183/183/129
f 178/184/130 180/185/130 167/186/130 166/187/130
f 171/188/131 174/189/131 173/190/131 172/191/131
f 184/182/129 181/177/129 169/176/129 183/183/129
f 178/184/132 177/192/132 181/193/132 180/185/132
f 177/178/133 178/194/133 176/195/133 179/180/133
f 179/195/134 176/196/134 182/197/134 184/198/134
f 182/197/131 176/196/131 165/187/131 164/186/131
f 180/199/135 181/193/135 184/200/135 182/201/135
f 164/202/136 167/203/136 180/199/136 182/201/136
